<mxfile host="65bd71144e">
    <diagram id="g4_GfxQD43kcTi8Pz77Z" name="Purpose">
        <mxGraphModel dx="1758" dy="1150" grid="1" gridSize="10" guides="1" tooltips="1" connect="1" arrows="1" fold="1" page="1" pageScale="1" pageWidth="850" pageHeight="1100" math="0" shadow="0">
            <root>
                <mxCell id="0"/>
                <mxCell id="1" parent="0"/>
                <mxCell id="3" value="" style="shape=mxgraph.cisco.buildings.small_business;html=1;pointerEvents=1;dashed=0;fillColor=#036897;strokeColor=#ffffff;strokeWidth=2;verticalLabelPosition=bottom;verticalAlign=top;align=center;outlineConnect=0;" vertex="1" parent="1">
                    <mxGeometry x="290" y="470" width="250" height="180" as="geometry"/>
                </mxCell>
                <mxCell id="4" value="patient" style="ellipse;shape=cloud;whiteSpace=wrap;html=1;" vertex="1" parent="1">
                    <mxGeometry x="50" y="480" width="120" height="80" as="geometry"/>
                </mxCell>
                <mxCell id="5" value="unit" style="ellipse;shape=cloud;whiteSpace=wrap;html=1;" vertex="1" parent="1">
                    <mxGeometry x="190" y="310" width="120" height="80" as="geometry"/>
                </mxCell>
                <mxCell id="6" value="doctor" style="ellipse;shape=cloud;whiteSpace=wrap;html=1;" vertex="1" parent="1">
                    <mxGeometry x="490" y="310" width="120" height="80" as="geometry"/>
                </mxCell>
                <mxCell id="7" value="intervention" style="ellipse;shape=cloud;whiteSpace=wrap;html=1;" vertex="1" parent="1">
                    <mxGeometry x="660" y="480" width="120" height="80" as="geometry"/>
                </mxCell>
            </root>
        </mxGraphModel>
    </diagram>
    <diagram id="vcH5fv-fcVb36icoPixd" name="ER">
        <mxGraphModel dx="1758" dy="1150" grid="1" gridSize="10" guides="1" tooltips="1" connect="1" arrows="1" fold="1" page="1" pageScale="1" pageWidth="850" pageHeight="1100" math="0" shadow="0">
            <root>
                <mxCell id="QsO45Y7AGDSaX9BcK1us-0"/>
                <mxCell id="QsO45Y7AGDSaX9BcK1us-1" parent="QsO45Y7AGDSaX9BcK1us-0"/>
                <mxCell id="Ax5W1WmBajKpBRNiaURI-9" style="edgeStyle=none;html=1;exitX=0;exitY=0.75;exitDx=0;exitDy=0;entryX=0.933;entryY=0.3;entryDx=0;entryDy=0;entryPerimeter=0;endArrow=none;endFill=0;" edge="1" parent="QsO45Y7AGDSaX9BcK1us-1" source="QsO45Y7AGDSaX9BcK1us-2" target="QsO45Y7AGDSaX9BcK1us-13">
                    <mxGeometry relative="1" as="geometry"/>
                </mxCell>
                <mxCell id="QsO45Y7AGDSaX9BcK1us-2" value="Doctor" style="whiteSpace=wrap;html=1;align=center;" vertex="1" parent="QsO45Y7AGDSaX9BcK1us-1">
                    <mxGeometry x="370" y="560" width="100" height="40" as="geometry"/>
                </mxCell>
                <mxCell id="QsO45Y7AGDSaX9BcK1us-3" value="Patient" style="whiteSpace=wrap;html=1;align=center;" vertex="1" parent="QsO45Y7AGDSaX9BcK1us-1">
                    <mxGeometry x="375" y="260" width="100" height="40" as="geometry"/>
                </mxCell>
                <mxCell id="Ax5W1WmBajKpBRNiaURI-6" style="edgeStyle=none;html=1;exitX=0;exitY=0;exitDx=0;exitDy=0;entryX=0.707;entryY=1.067;entryDx=0;entryDy=0;entryPerimeter=0;endArrow=none;endFill=0;" edge="1" parent="QsO45Y7AGDSaX9BcK1us-1" source="QsO45Y7AGDSaX9BcK1us-5" target="QsO45Y7AGDSaX9BcK1us-7">
                    <mxGeometry relative="1" as="geometry"/>
                </mxCell>
                <mxCell id="Ax5W1WmBajKpBRNiaURI-7" style="edgeStyle=none;html=1;exitX=0;exitY=0.5;exitDx=0;exitDy=0;endArrow=none;endFill=0;" edge="1" parent="QsO45Y7AGDSaX9BcK1us-1" source="QsO45Y7AGDSaX9BcK1us-5" target="QsO45Y7AGDSaX9BcK1us-8">
                    <mxGeometry relative="1" as="geometry"/>
                </mxCell>
                <mxCell id="Ax5W1WmBajKpBRNiaURI-8" style="edgeStyle=none;html=1;exitX=0;exitY=1;exitDx=0;exitDy=0;entryX=0.68;entryY=0;entryDx=0;entryDy=0;entryPerimeter=0;endArrow=none;endFill=0;" edge="1" parent="QsO45Y7AGDSaX9BcK1us-1" source="QsO45Y7AGDSaX9BcK1us-5" target="QsO45Y7AGDSaX9BcK1us-9">
                    <mxGeometry relative="1" as="geometry"/>
                </mxCell>
                <mxCell id="QsO45Y7AGDSaX9BcK1us-5" value="Unit" style="whiteSpace=wrap;html=1;align=center;" vertex="1" parent="QsO45Y7AGDSaX9BcK1us-1">
                    <mxGeometry x="190" y="400" width="100" height="40" as="geometry"/>
                </mxCell>
                <mxCell id="QsO45Y7AGDSaX9BcK1us-6" value="Intervention" style="whiteSpace=wrap;html=1;align=center;" vertex="1" parent="QsO45Y7AGDSaX9BcK1us-1">
                    <mxGeometry x="560" y="400" width="100" height="40" as="geometry"/>
                </mxCell>
                <mxCell id="QsO45Y7AGDSaX9BcK1us-7" value="&lt;u&gt;unit_id&lt;/u&gt;" style="ellipse;whiteSpace=wrap;html=1;align=center;" vertex="1" parent="QsO45Y7AGDSaX9BcK1us-1">
                    <mxGeometry x="110" y="340" width="100" height="40" as="geometry"/>
                </mxCell>
                <mxCell id="QsO45Y7AGDSaX9BcK1us-8" value="unit_name" style="ellipse;whiteSpace=wrap;html=1;align=center;" vertex="1" parent="QsO45Y7AGDSaX9BcK1us-1">
                    <mxGeometry x="50" y="410" width="100" height="40" as="geometry"/>
                </mxCell>
                <mxCell id="QsO45Y7AGDSaX9BcK1us-9" value="floor" style="ellipse;whiteSpace=wrap;html=1;align=center;" vertex="1" parent="QsO45Y7AGDSaX9BcK1us-1">
                    <mxGeometry x="110" y="470" width="100" height="40" as="geometry"/>
                </mxCell>
                <mxCell id="Ax5W1WmBajKpBRNiaURI-10" style="edgeStyle=none;html=1;exitX=0.5;exitY=0;exitDx=0;exitDy=0;entryX=0.5;entryY=1;entryDx=0;entryDy=0;endArrow=none;endFill=0;" edge="1" parent="QsO45Y7AGDSaX9BcK1us-1" source="QsO45Y7AGDSaX9BcK1us-10" target="QsO45Y7AGDSaX9BcK1us-2">
                    <mxGeometry relative="1" as="geometry"/>
                </mxCell>
                <mxCell id="QsO45Y7AGDSaX9BcK1us-10" value="doctor_name" style="ellipse;whiteSpace=wrap;html=1;align=center;" vertex="1" parent="QsO45Y7AGDSaX9BcK1us-1">
                    <mxGeometry x="370" y="650" width="100" height="40" as="geometry"/>
                </mxCell>
                <mxCell id="Ax5W1WmBajKpBRNiaURI-11" style="edgeStyle=none;html=1;exitX=0;exitY=0;exitDx=0;exitDy=0;entryX=1;entryY=0.75;entryDx=0;entryDy=0;endArrow=none;endFill=0;" edge="1" parent="QsO45Y7AGDSaX9BcK1us-1" source="QsO45Y7AGDSaX9BcK1us-12" target="QsO45Y7AGDSaX9BcK1us-2">
                    <mxGeometry relative="1" as="geometry"/>
                </mxCell>
                <mxCell id="QsO45Y7AGDSaX9BcK1us-12" value="&lt;u&gt;doctor_id&lt;/u&gt;" style="ellipse;whiteSpace=wrap;html=1;align=center;" vertex="1" parent="QsO45Y7AGDSaX9BcK1us-1">
                    <mxGeometry x="510" y="600" width="100" height="40" as="geometry"/>
                </mxCell>
                <mxCell id="QsO45Y7AGDSaX9BcK1us-13" value="specialty" style="ellipse;whiteSpace=wrap;html=1;align=center;" vertex="1" parent="QsO45Y7AGDSaX9BcK1us-1">
                    <mxGeometry x="230" y="600" width="100" height="40" as="geometry"/>
                </mxCell>
                <mxCell id="Ax5W1WmBajKpBRNiaURI-17" style="edgeStyle=none;html=1;exitX=0.5;exitY=1;exitDx=0;exitDy=0;entryX=0.5;entryY=0;entryDx=0;entryDy=0;endArrow=none;endFill=0;" edge="1" parent="QsO45Y7AGDSaX9BcK1us-1" source="QsO45Y7AGDSaX9BcK1us-14" target="QsO45Y7AGDSaX9BcK1us-3">
                    <mxGeometry relative="1" as="geometry"/>
                </mxCell>
                <mxCell id="QsO45Y7AGDSaX9BcK1us-14" value="&lt;span style=&quot;border-bottom: 1px dotted&quot;&gt;&lt;u&gt;ss_number&lt;/u&gt;&lt;/span&gt;" style="ellipse;whiteSpace=wrap;html=1;align=center;" vertex="1" parent="QsO45Y7AGDSaX9BcK1us-1">
                    <mxGeometry x="375" y="160" width="100" height="40" as="geometry"/>
                </mxCell>
                <mxCell id="Ax5W1WmBajKpBRNiaURI-18" style="edgeStyle=none;html=1;exitX=1;exitY=1;exitDx=0;exitDy=0;entryX=0;entryY=0;entryDx=0;entryDy=0;endArrow=none;endFill=0;" edge="1" parent="QsO45Y7AGDSaX9BcK1us-1" source="Ax5W1WmBajKpBRNiaURI-0" target="QsO45Y7AGDSaX9BcK1us-3">
                    <mxGeometry relative="1" as="geometry"/>
                </mxCell>
                <mxCell id="Ax5W1WmBajKpBRNiaURI-0" value="age" style="ellipse;whiteSpace=wrap;html=1;align=center;" vertex="1" parent="QsO45Y7AGDSaX9BcK1us-1">
                    <mxGeometry x="250" y="200" width="100" height="40" as="geometry"/>
                </mxCell>
                <mxCell id="Ax5W1WmBajKpBRNiaURI-16" style="edgeStyle=none;html=1;exitX=0;exitY=1;exitDx=0;exitDy=0;entryX=1;entryY=0;entryDx=0;entryDy=0;endArrow=none;endFill=0;" edge="1" parent="QsO45Y7AGDSaX9BcK1us-1" source="Ax5W1WmBajKpBRNiaURI-1" target="QsO45Y7AGDSaX9BcK1us-3">
                    <mxGeometry relative="1" as="geometry"/>
                </mxCell>
                <mxCell id="Ax5W1WmBajKpBRNiaURI-1" value="date_of_admission" style="ellipse;whiteSpace=wrap;html=1;align=center;" vertex="1" parent="QsO45Y7AGDSaX9BcK1us-1">
                    <mxGeometry x="480" y="195" width="120" height="50" as="geometry"/>
                </mxCell>
                <mxCell id="Ax5W1WmBajKpBRNiaURI-14" value="" style="edgeStyle=none;html=1;endArrow=none;endFill=0;" edge="1" parent="QsO45Y7AGDSaX9BcK1us-1" source="Ax5W1WmBajKpBRNiaURI-2" target="QsO45Y7AGDSaX9BcK1us-6">
                    <mxGeometry relative="1" as="geometry"/>
                </mxCell>
                <mxCell id="Ax5W1WmBajKpBRNiaURI-2" value="&lt;span style=&quot;border-bottom: 1px dotted&quot;&gt;symptoms&lt;/span&gt;" style="ellipse;whiteSpace=wrap;html=1;align=center;" vertex="1" parent="QsO45Y7AGDSaX9BcK1us-1">
                    <mxGeometry x="700" y="400" width="100" height="40" as="geometry"/>
                </mxCell>
                <mxCell id="Ax5W1WmBajKpBRNiaURI-12" style="edgeStyle=none;html=1;exitX=0.5;exitY=0;exitDx=0;exitDy=0;entryX=0.5;entryY=1;entryDx=0;entryDy=0;endArrow=none;endFill=0;" edge="1" parent="QsO45Y7AGDSaX9BcK1us-1" source="Ax5W1WmBajKpBRNiaURI-3" target="QsO45Y7AGDSaX9BcK1us-6">
                    <mxGeometry relative="1" as="geometry"/>
                </mxCell>
                <mxCell id="Ax5W1WmBajKpBRNiaURI-3" value="&lt;span style=&quot;border-bottom: 1px dotted&quot;&gt;treatment&lt;br&gt;&lt;/span&gt;" style="ellipse;whiteSpace=wrap;html=1;align=center;" vertex="1" parent="QsO45Y7AGDSaX9BcK1us-1">
                    <mxGeometry x="630" y="540" width="100" height="40" as="geometry"/>
                </mxCell>
                <mxCell id="Ax5W1WmBajKpBRNiaURI-15" style="edgeStyle=none;html=1;exitX=0.5;exitY=1;exitDx=0;exitDy=0;entryX=0.75;entryY=0;entryDx=0;entryDy=0;endArrow=none;endFill=0;" edge="1" parent="QsO45Y7AGDSaX9BcK1us-1" source="Ax5W1WmBajKpBRNiaURI-4" target="QsO45Y7AGDSaX9BcK1us-6">
                    <mxGeometry relative="1" as="geometry"/>
                </mxCell>
                <mxCell id="Ax5W1WmBajKpBRNiaURI-4" value="&lt;span style=&quot;border-bottom: 1px dotted&quot;&gt;date&lt;/span&gt;" style="ellipse;whiteSpace=wrap;html=1;align=center;" vertex="1" parent="QsO45Y7AGDSaX9BcK1us-1">
                    <mxGeometry x="620" y="310" width="100" height="40" as="geometry"/>
                </mxCell>
                <mxCell id="Ax5W1WmBajKpBRNiaURI-13" style="edgeStyle=none;html=1;exitX=0;exitY=0;exitDx=0;exitDy=0;entryX=1;entryY=1;entryDx=0;entryDy=0;endArrow=none;endFill=0;" edge="1" parent="QsO45Y7AGDSaX9BcK1us-1" source="Ax5W1WmBajKpBRNiaURI-5" target="QsO45Y7AGDSaX9BcK1us-6">
                    <mxGeometry relative="1" as="geometry"/>
                </mxCell>
                <mxCell id="Ax5W1WmBajKpBRNiaURI-5" value="&lt;span style=&quot;border-bottom: 1px dotted&quot;&gt;&lt;u&gt;intervention_id&lt;/u&gt;&lt;br&gt;&lt;/span&gt;" style="ellipse;whiteSpace=wrap;html=1;align=center;" vertex="1" parent="QsO45Y7AGDSaX9BcK1us-1">
                    <mxGeometry x="680" y="470" width="100" height="40" as="geometry"/>
                </mxCell>
                <mxCell id="Ax5W1WmBajKpBRNiaURI-21" style="edgeStyle=none;html=1;exitX=0;exitY=0;exitDx=0;exitDy=0;entryX=0.5;entryY=1;entryDx=0;entryDy=0;endArrow=ERmany;endFill=0;" edge="1" parent="QsO45Y7AGDSaX9BcK1us-1" source="Ax5W1WmBajKpBRNiaURI-19" target="QsO45Y7AGDSaX9BcK1us-5">
                    <mxGeometry relative="1" as="geometry"/>
                </mxCell>
                <mxCell id="Ax5W1WmBajKpBRNiaURI-23" style="edgeStyle=none;html=1;exitX=1;exitY=1;exitDx=0;exitDy=0;entryX=0;entryY=0;entryDx=0;entryDy=0;endArrow=ERone;endFill=0;" edge="1" parent="QsO45Y7AGDSaX9BcK1us-1" source="Ax5W1WmBajKpBRNiaURI-19" target="QsO45Y7AGDSaX9BcK1us-2">
                    <mxGeometry relative="1" as="geometry"/>
                </mxCell>
                <mxCell id="Ax5W1WmBajKpBRNiaURI-19" value="is in charge of" style="shape=rhombus;perimeter=rhombusPerimeter;whiteSpace=wrap;html=1;align=center;" vertex="1" parent="QsO45Y7AGDSaX9BcK1us-1">
                    <mxGeometry x="240" y="480" width="120" height="60" as="geometry"/>
                </mxCell>
                <mxCell id="Ax5W1WmBajKpBRNiaURI-25" style="edgeStyle=none;html=1;exitX=1;exitY=0;exitDx=0;exitDy=0;entryX=0;entryY=1;entryDx=0;entryDy=0;endArrow=ERmany;endFill=0;" edge="1" parent="QsO45Y7AGDSaX9BcK1us-1" source="Ax5W1WmBajKpBRNiaURI-24" target="QsO45Y7AGDSaX9BcK1us-3">
                    <mxGeometry relative="1" as="geometry"/>
                </mxCell>
                <mxCell id="Ax5W1WmBajKpBRNiaURI-26" style="edgeStyle=none;html=1;exitX=0;exitY=1;exitDx=0;exitDy=0;entryX=0.75;entryY=0;entryDx=0;entryDy=0;endArrow=ERone;endFill=0;" edge="1" parent="QsO45Y7AGDSaX9BcK1us-1" source="Ax5W1WmBajKpBRNiaURI-24" target="QsO45Y7AGDSaX9BcK1us-5">
                    <mxGeometry relative="1" as="geometry"/>
                </mxCell>
                <mxCell id="Ax5W1WmBajKpBRNiaURI-24" value="admitted to" style="shape=rhombus;perimeter=rhombusPerimeter;whiteSpace=wrap;html=1;align=center;" vertex="1" parent="QsO45Y7AGDSaX9BcK1us-1">
                    <mxGeometry x="255" y="310" width="120" height="60" as="geometry"/>
                </mxCell>
                <mxCell id="Ax5W1WmBajKpBRNiaURI-29" style="edgeStyle=none;html=1;exitX=1;exitY=0;exitDx=0;exitDy=0;entryX=0.25;entryY=1;entryDx=0;entryDy=0;endArrow=ERmany;endFill=0;" edge="1" parent="QsO45Y7AGDSaX9BcK1us-1" source="Ax5W1WmBajKpBRNiaURI-27" target="QsO45Y7AGDSaX9BcK1us-6">
                    <mxGeometry relative="1" as="geometry"/>
                </mxCell>
                <mxCell id="Ax5W1WmBajKpBRNiaURI-30" style="edgeStyle=none;html=1;exitX=0;exitY=1;exitDx=0;exitDy=0;endArrow=baseDash;endFill=0;" edge="1" parent="QsO45Y7AGDSaX9BcK1us-1" source="Ax5W1WmBajKpBRNiaURI-27" target="QsO45Y7AGDSaX9BcK1us-2">
                    <mxGeometry relative="1" as="geometry"/>
                </mxCell>
                <mxCell id="Ax5W1WmBajKpBRNiaURI-27" value="writes down" style="shape=rhombus;perimeter=rhombusPerimeter;whiteSpace=wrap;html=1;align=center;" vertex="1" parent="QsO45Y7AGDSaX9BcK1us-1">
                    <mxGeometry x="470" y="470" width="120" height="60" as="geometry"/>
                </mxCell>
            </root>
        </mxGraphModel>
    </diagram>
    <diagram id="RRtCLBsli2v66ijt0-Gj" name="UML">
        <mxGraphModel dx="1758" dy="1150" grid="1" gridSize="10" guides="1" tooltips="1" connect="1" arrows="1" fold="1" page="1" pageScale="1" pageWidth="850" pageHeight="1100" math="0" shadow="0">
            <root>
                <mxCell id="vFZ4v4BouN-9nq82ZFD_-0"/>
                <mxCell id="vFZ4v4BouN-9nq82ZFD_-1" parent="vFZ4v4BouN-9nq82ZFD_-0"/>
                <mxCell id="vFZ4v4BouN-9nq82ZFD_-2" value="Patient" style="swimlane;fontStyle=1;align=center;verticalAlign=top;childLayout=stackLayout;horizontal=1;startSize=26;horizontalStack=0;resizeParent=1;resizeParentMax=0;resizeLast=0;collapsible=1;marginBottom=0;" vertex="1" parent="vFZ4v4BouN-9nq82ZFD_-1">
                    <mxGeometry x="300" y="70" width="270" height="268" as="geometry"/>
                </mxCell>
                <mxCell id="vFZ4v4BouN-9nq82ZFD_-3" value="+ ss_number: int" style="text;strokeColor=none;fillColor=none;align=left;verticalAlign=top;spacingLeft=4;spacingRight=4;overflow=hidden;rotatable=0;points=[[0,0.5],[1,0.5]];portConstraint=eastwest;fontStyle=4" vertex="1" parent="vFZ4v4BouN-9nq82ZFD_-2">
                    <mxGeometry y="26" width="270" height="26" as="geometry"/>
                </mxCell>
                <mxCell id="vFZ4v4BouN-9nq82ZFD_-6" value="+ date_of_admission: string" style="text;strokeColor=none;fillColor=none;align=left;verticalAlign=top;spacingLeft=4;spacingRight=4;overflow=hidden;rotatable=0;points=[[0,0.5],[1,0.5]];portConstraint=eastwest;fontStyle=0" vertex="1" parent="vFZ4v4BouN-9nq82ZFD_-2">
                    <mxGeometry y="52" width="270" height="26" as="geometry"/>
                </mxCell>
                <mxCell id="pb5ot81EXt6y0CDeblVj-0" value="+ age: int" style="text;strokeColor=none;fillColor=none;align=left;verticalAlign=top;spacingLeft=4;spacingRight=4;overflow=hidden;rotatable=0;points=[[0,0.5],[1,0.5]];portConstraint=eastwest;fontStyle=0" vertex="1" parent="vFZ4v4BouN-9nq82ZFD_-2">
                    <mxGeometry y="78" width="270" height="26" as="geometry"/>
                </mxCell>
                <mxCell id="NiOK_e1HV3F-EBgnHU8p-13" value="+ fk_unit_id: int" style="text;strokeColor=none;fillColor=none;align=left;verticalAlign=top;spacingLeft=4;spacingRight=4;overflow=hidden;rotatable=0;points=[[0,0.5],[1,0.5]];portConstraint=eastwest;fontStyle=0" vertex="1" parent="vFZ4v4BouN-9nq82ZFD_-2">
                    <mxGeometry y="104" width="270" height="26" as="geometry"/>
                </mxCell>
                <mxCell id="NiOK_e1HV3F-EBgnHU8p-14" value="+ fk_intervention_id: int" style="text;strokeColor=none;fillColor=none;align=left;verticalAlign=top;spacingLeft=4;spacingRight=4;overflow=hidden;rotatable=0;points=[[0,0.5],[1,0.5]];portConstraint=eastwest;fontStyle=0" vertex="1" parent="vFZ4v4BouN-9nq82ZFD_-2">
                    <mxGeometry y="130" width="270" height="26" as="geometry"/>
                </mxCell>
                <mxCell id="NiOK_e1HV3F-EBgnHU8p-15" value="+ fk_doctor_id: int" style="text;strokeColor=none;fillColor=none;align=left;verticalAlign=top;spacingLeft=4;spacingRight=4;overflow=hidden;rotatable=0;points=[[0,0.5],[1,0.5]];portConstraint=eastwest;fontStyle=0" vertex="1" parent="vFZ4v4BouN-9nq82ZFD_-2">
                    <mxGeometry y="156" width="270" height="26" as="geometry"/>
                </mxCell>
                <mxCell id="vFZ4v4BouN-9nq82ZFD_-4" value="" style="line;strokeWidth=1;fillColor=none;align=left;verticalAlign=middle;spacingTop=-1;spacingLeft=3;spacingRight=3;rotatable=0;labelPosition=right;points=[];portConstraint=eastwest;" vertex="1" parent="vFZ4v4BouN-9nq82ZFD_-2">
                    <mxGeometry y="182" width="270" height="8" as="geometry"/>
                </mxCell>
                <mxCell id="vFZ4v4BouN-9nq82ZFD_-5" value="+ addPatient()" style="text;strokeColor=none;fillColor=none;align=left;verticalAlign=top;spacingLeft=4;spacingRight=4;overflow=hidden;rotatable=0;points=[[0,0.5],[1,0.5]];portConstraint=eastwest;" vertex="1" parent="vFZ4v4BouN-9nq82ZFD_-2">
                    <mxGeometry y="190" width="270" height="26" as="geometry"/>
                </mxCell>
                <mxCell id="pb5ot81EXt6y0CDeblVj-1" value="+ removePatient()" style="text;strokeColor=none;fillColor=none;align=left;verticalAlign=top;spacingLeft=4;spacingRight=4;overflow=hidden;rotatable=0;points=[[0,0.5],[1,0.5]];portConstraint=eastwest;" vertex="1" parent="vFZ4v4BouN-9nq82ZFD_-2">
                    <mxGeometry y="216" width="270" height="26" as="geometry"/>
                </mxCell>
                <mxCell id="pb5ot81EXt6y0CDeblVj-2" value="+ editPatient()" style="text;strokeColor=none;fillColor=none;align=left;verticalAlign=top;spacingLeft=4;spacingRight=4;overflow=hidden;rotatable=0;points=[[0,0.5],[1,0.5]];portConstraint=eastwest;" vertex="1" parent="vFZ4v4BouN-9nq82ZFD_-2">
                    <mxGeometry y="242" width="270" height="26" as="geometry"/>
                </mxCell>
                <mxCell id="pb5ot81EXt6y0CDeblVj-3" value="Doctor" style="swimlane;fontStyle=1;align=center;verticalAlign=top;childLayout=stackLayout;horizontal=1;startSize=26;horizontalStack=0;resizeParent=1;resizeParentMax=0;resizeLast=0;collapsible=1;marginBottom=0;" vertex="1" parent="vFZ4v4BouN-9nq82ZFD_-1">
                    <mxGeometry x="345" y="750" width="160" height="190" as="geometry"/>
                </mxCell>
                <mxCell id="pb5ot81EXt6y0CDeblVj-4" value="+ doctor_id: int" style="text;strokeColor=none;fillColor=none;align=left;verticalAlign=top;spacingLeft=4;spacingRight=4;overflow=hidden;rotatable=0;points=[[0,0.5],[1,0.5]];portConstraint=eastwest;fontStyle=4" vertex="1" parent="pb5ot81EXt6y0CDeblVj-3">
                    <mxGeometry y="26" width="160" height="26" as="geometry"/>
                </mxCell>
                <mxCell id="pb5ot81EXt6y0CDeblVj-7" value="+ doctor_name: string" style="text;strokeColor=none;fillColor=none;align=left;verticalAlign=top;spacingLeft=4;spacingRight=4;overflow=hidden;rotatable=0;points=[[0,0.5],[1,0.5]];portConstraint=eastwest;fontStyle=0" vertex="1" parent="pb5ot81EXt6y0CDeblVj-3">
                    <mxGeometry y="52" width="160" height="26" as="geometry"/>
                </mxCell>
                <mxCell id="VClPi1uoq6REppz3DDRp-0" value="+ specialty: string" style="text;strokeColor=none;fillColor=none;align=left;verticalAlign=top;spacingLeft=4;spacingRight=4;overflow=hidden;rotatable=0;points=[[0,0.5],[1,0.5]];portConstraint=eastwest;fontStyle=0" vertex="1" parent="pb5ot81EXt6y0CDeblVj-3">
                    <mxGeometry y="78" width="160" height="26" as="geometry"/>
                </mxCell>
                <mxCell id="pb5ot81EXt6y0CDeblVj-5" value="" style="line;strokeWidth=1;fillColor=none;align=left;verticalAlign=middle;spacingTop=-1;spacingLeft=3;spacingRight=3;rotatable=0;labelPosition=right;points=[];portConstraint=eastwest;" vertex="1" parent="pb5ot81EXt6y0CDeblVj-3">
                    <mxGeometry y="104" width="160" height="8" as="geometry"/>
                </mxCell>
                <mxCell id="pb5ot81EXt6y0CDeblVj-6" value="+ addDoctor()" style="text;strokeColor=none;fillColor=none;align=left;verticalAlign=top;spacingLeft=4;spacingRight=4;overflow=hidden;rotatable=0;points=[[0,0.5],[1,0.5]];portConstraint=eastwest;" vertex="1" parent="pb5ot81EXt6y0CDeblVj-3">
                    <mxGeometry y="112" width="160" height="26" as="geometry"/>
                </mxCell>
                <mxCell id="VClPi1uoq6REppz3DDRp-1" value="+ removeDoctor()" style="text;strokeColor=none;fillColor=none;align=left;verticalAlign=top;spacingLeft=4;spacingRight=4;overflow=hidden;rotatable=0;points=[[0,0.5],[1,0.5]];portConstraint=eastwest;" vertex="1" parent="pb5ot81EXt6y0CDeblVj-3">
                    <mxGeometry y="138" width="160" height="26" as="geometry"/>
                </mxCell>
                <mxCell id="VClPi1uoq6REppz3DDRp-2" value="+ editDoctor()" style="text;strokeColor=none;fillColor=none;align=left;verticalAlign=top;spacingLeft=4;spacingRight=4;overflow=hidden;rotatable=0;points=[[0,0.5],[1,0.5]];portConstraint=eastwest;" vertex="1" parent="pb5ot81EXt6y0CDeblVj-3">
                    <mxGeometry y="164" width="160" height="26" as="geometry"/>
                </mxCell>
                <mxCell id="VClPi1uoq6REppz3DDRp-3" value="Unit" style="swimlane;fontStyle=1;align=center;verticalAlign=top;childLayout=stackLayout;horizontal=1;startSize=26;horizontalStack=0;resizeParent=1;resizeParentMax=0;resizeLast=0;collapsible=1;marginBottom=0;" vertex="1" parent="vFZ4v4BouN-9nq82ZFD_-1">
                    <mxGeometry x="80" y="430" width="160" height="216" as="geometry"/>
                </mxCell>
                <mxCell id="VClPi1uoq6REppz3DDRp-4" value="+ unit_id: int" style="text;strokeColor=none;fillColor=none;align=left;verticalAlign=top;spacingLeft=4;spacingRight=4;overflow=hidden;rotatable=0;points=[[0,0.5],[1,0.5]];portConstraint=eastwest;fontStyle=4" vertex="1" parent="VClPi1uoq6REppz3DDRp-3">
                    <mxGeometry y="26" width="160" height="26" as="geometry"/>
                </mxCell>
                <mxCell id="NiOK_e1HV3F-EBgnHU8p-0" value="+ unit_name: string" style="text;strokeColor=none;fillColor=none;align=left;verticalAlign=top;spacingLeft=4;spacingRight=4;overflow=hidden;rotatable=0;points=[[0,0.5],[1,0.5]];portConstraint=eastwest;fontStyle=0" vertex="1" parent="VClPi1uoq6REppz3DDRp-3">
                    <mxGeometry y="52" width="160" height="26" as="geometry"/>
                </mxCell>
                <mxCell id="NiOK_e1HV3F-EBgnHU8p-1" value="+ floor: int" style="text;strokeColor=none;fillColor=none;align=left;verticalAlign=top;spacingLeft=4;spacingRight=4;overflow=hidden;rotatable=0;points=[[0,0.5],[1,0.5]];portConstraint=eastwest;fontStyle=0" vertex="1" parent="VClPi1uoq6REppz3DDRp-3">
                    <mxGeometry y="78" width="160" height="26" as="geometry"/>
                </mxCell>
                <mxCell id="NiOK_e1HV3F-EBgnHU8p-16" value="+ fk_doctor_id: int" style="text;strokeColor=none;fillColor=none;align=left;verticalAlign=top;spacingLeft=4;spacingRight=4;overflow=hidden;rotatable=0;points=[[0,0.5],[1,0.5]];portConstraint=eastwest;fontStyle=0" vertex="1" parent="VClPi1uoq6REppz3DDRp-3">
                    <mxGeometry y="104" width="160" height="26" as="geometry"/>
                </mxCell>
                <mxCell id="VClPi1uoq6REppz3DDRp-5" value="" style="line;strokeWidth=1;fillColor=none;align=left;verticalAlign=middle;spacingTop=-1;spacingLeft=3;spacingRight=3;rotatable=0;labelPosition=right;points=[];portConstraint=eastwest;" vertex="1" parent="VClPi1uoq6REppz3DDRp-3">
                    <mxGeometry y="130" width="160" height="8" as="geometry"/>
                </mxCell>
                <mxCell id="VClPi1uoq6REppz3DDRp-6" value="+ addUnit()" style="text;strokeColor=none;fillColor=none;align=left;verticalAlign=top;spacingLeft=4;spacingRight=4;overflow=hidden;rotatable=0;points=[[0,0.5],[1,0.5]];portConstraint=eastwest;" vertex="1" parent="VClPi1uoq6REppz3DDRp-3">
                    <mxGeometry y="138" width="160" height="26" as="geometry"/>
                </mxCell>
                <mxCell id="NiOK_e1HV3F-EBgnHU8p-2" value="+ removeUnit()" style="text;strokeColor=none;fillColor=none;align=left;verticalAlign=top;spacingLeft=4;spacingRight=4;overflow=hidden;rotatable=0;points=[[0,0.5],[1,0.5]];portConstraint=eastwest;" vertex="1" parent="VClPi1uoq6REppz3DDRp-3">
                    <mxGeometry y="164" width="160" height="26" as="geometry"/>
                </mxCell>
                <mxCell id="NiOK_e1HV3F-EBgnHU8p-3" value="+ editUnit()" style="text;strokeColor=none;fillColor=none;align=left;verticalAlign=top;spacingLeft=4;spacingRight=4;overflow=hidden;rotatable=0;points=[[0,0.5],[1,0.5]];portConstraint=eastwest;" vertex="1" parent="VClPi1uoq6REppz3DDRp-3">
                    <mxGeometry y="190" width="160" height="26" as="geometry"/>
                </mxCell>
                <mxCell id="NiOK_e1HV3F-EBgnHU8p-20" style="edgeStyle=none;html=1;exitX=0;exitY=0;exitDx=0;exitDy=0;entryX=1;entryY=0.5;entryDx=0;entryDy=0;endArrow=none;endFill=0;" edge="1" parent="vFZ4v4BouN-9nq82ZFD_-1" source="NiOK_e1HV3F-EBgnHU8p-4" target="pb5ot81EXt6y0CDeblVj-2">
                    <mxGeometry relative="1" as="geometry"/>
                </mxCell>
                <mxCell id="NiOK_e1HV3F-EBgnHU8p-4" value="Intervention" style="swimlane;fontStyle=1;align=center;verticalAlign=top;childLayout=stackLayout;horizontal=1;startSize=26;horizontalStack=0;resizeParent=1;resizeParentMax=0;resizeLast=0;collapsible=1;marginBottom=0;" vertex="1" parent="vFZ4v4BouN-9nq82ZFD_-1">
                    <mxGeometry x="620" y="417" width="190" height="216" as="geometry"/>
                </mxCell>
                <mxCell id="NiOK_e1HV3F-EBgnHU8p-5" value="+ intervention_id" style="text;strokeColor=none;fillColor=none;align=left;verticalAlign=top;spacingLeft=4;spacingRight=4;overflow=hidden;rotatable=0;points=[[0,0.5],[1,0.5]];portConstraint=eastwest;fontStyle=4" vertex="1" parent="NiOK_e1HV3F-EBgnHU8p-4">
                    <mxGeometry y="26" width="190" height="26" as="geometry"/>
                </mxCell>
                <mxCell id="NiOK_e1HV3F-EBgnHU8p-8" value="+ date_of_intervention: string" style="text;strokeColor=none;fillColor=none;align=left;verticalAlign=top;spacingLeft=4;spacingRight=4;overflow=hidden;rotatable=0;points=[[0,0.5],[1,0.5]];portConstraint=eastwest;" vertex="1" parent="NiOK_e1HV3F-EBgnHU8p-4">
                    <mxGeometry y="52" width="190" height="26" as="geometry"/>
                </mxCell>
                <mxCell id="NiOK_e1HV3F-EBgnHU8p-9" value="+ symptoms: string" style="text;strokeColor=none;fillColor=none;align=left;verticalAlign=top;spacingLeft=4;spacingRight=4;overflow=hidden;rotatable=0;points=[[0,0.5],[1,0.5]];portConstraint=eastwest;" vertex="1" parent="NiOK_e1HV3F-EBgnHU8p-4">
                    <mxGeometry y="78" width="190" height="26" as="geometry"/>
                </mxCell>
                <mxCell id="NiOK_e1HV3F-EBgnHU8p-10" value="+ treatment: string" style="text;strokeColor=none;fillColor=none;align=left;verticalAlign=top;spacingLeft=4;spacingRight=4;overflow=hidden;rotatable=0;points=[[0,0.5],[1,0.5]];portConstraint=eastwest;" vertex="1" parent="NiOK_e1HV3F-EBgnHU8p-4">
                    <mxGeometry y="104" width="190" height="26" as="geometry"/>
                </mxCell>
                <mxCell id="NiOK_e1HV3F-EBgnHU8p-6" value="" style="line;strokeWidth=1;fillColor=none;align=left;verticalAlign=middle;spacingTop=-1;spacingLeft=3;spacingRight=3;rotatable=0;labelPosition=right;points=[];portConstraint=eastwest;" vertex="1" parent="NiOK_e1HV3F-EBgnHU8p-4">
                    <mxGeometry y="130" width="190" height="8" as="geometry"/>
                </mxCell>
                <mxCell id="NiOK_e1HV3F-EBgnHU8p-7" value="+ addIntervention()" style="text;strokeColor=none;fillColor=none;align=left;verticalAlign=top;spacingLeft=4;spacingRight=4;overflow=hidden;rotatable=0;points=[[0,0.5],[1,0.5]];portConstraint=eastwest;" vertex="1" parent="NiOK_e1HV3F-EBgnHU8p-4">
                    <mxGeometry y="138" width="190" height="26" as="geometry"/>
                </mxCell>
                <mxCell id="NiOK_e1HV3F-EBgnHU8p-11" value="+ removeIntervention()" style="text;strokeColor=none;fillColor=none;align=left;verticalAlign=top;spacingLeft=4;spacingRight=4;overflow=hidden;rotatable=0;points=[[0,0.5],[1,0.5]];portConstraint=eastwest;" vertex="1" parent="NiOK_e1HV3F-EBgnHU8p-4">
                    <mxGeometry y="164" width="190" height="26" as="geometry"/>
                </mxCell>
                <mxCell id="NiOK_e1HV3F-EBgnHU8p-12" value="+ editIntervention()" style="text;strokeColor=none;fillColor=none;align=left;verticalAlign=top;spacingLeft=4;spacingRight=4;overflow=hidden;rotatable=0;points=[[0,0.5],[1,0.5]];portConstraint=eastwest;" vertex="1" parent="NiOK_e1HV3F-EBgnHU8p-4">
                    <mxGeometry y="190" width="190" height="26" as="geometry"/>
                </mxCell>
                <mxCell id="NiOK_e1HV3F-EBgnHU8p-17" style="edgeStyle=none;html=1;exitX=0;exitY=0.5;exitDx=0;exitDy=0;entryX=1;entryY=0;entryDx=0;entryDy=0;endArrow=none;endFill=0;" edge="1" parent="vFZ4v4BouN-9nq82ZFD_-1" source="pb5ot81EXt6y0CDeblVj-2" target="VClPi1uoq6REppz3DDRp-3">
                    <mxGeometry relative="1" as="geometry"/>
                </mxCell>
                <mxCell id="NiOK_e1HV3F-EBgnHU8p-18" style="edgeStyle=none;html=1;exitX=1;exitY=0.5;exitDx=0;exitDy=0;entryX=0;entryY=0;entryDx=0;entryDy=0;endArrow=none;endFill=0;" edge="1" parent="vFZ4v4BouN-9nq82ZFD_-1" source="NiOK_e1HV3F-EBgnHU8p-3" target="pb5ot81EXt6y0CDeblVj-3">
                    <mxGeometry relative="1" as="geometry"/>
                </mxCell>
                <mxCell id="NiOK_e1HV3F-EBgnHU8p-19" style="edgeStyle=none;html=1;exitX=0;exitY=0.5;exitDx=0;exitDy=0;entryX=1;entryY=0;entryDx=0;entryDy=0;endArrow=none;endFill=0;" edge="1" parent="vFZ4v4BouN-9nq82ZFD_-1" source="NiOK_e1HV3F-EBgnHU8p-12" target="pb5ot81EXt6y0CDeblVj-3">
                    <mxGeometry relative="1" as="geometry"/>
                </mxCell>
            </root>
        </mxGraphModel>
    </diagram>
</mxfile>